<?xml version="1.0" encoding="utf-8"?>
<!-- Generator: Adobe Illustrator 21.0.1, SVG Export Plug-In . SVG Version: 6.00 Build 0)  -->
<svg version="1.1" id="Layer_1" xmlns="http://www.w3.org/2000/svg" xmlns:xlink="http://www.w3.org/1999/xlink" x="0px" y="0px"
	 viewBox="0 0 512 512" style="enable-background:new 0 0 512 512;" xml:space="preserve">
<style type="text/css">
	.st0{fill:#187795;}
	.st1{fill:#0A5772;}
	.st2{fill:#FEE187;}
	.st3{fill:#FFEDB5;}
	.st4{fill:#E09112;}
	.st5{fill:#E67500;}
</style>
<circle class="st0" cx="256" cy="256" r="256"/>
<path class="st1" d="M388.7,142.1l-71.6,7.3l-49.2-49.2l-17.7,24.2l-18.9-18.9l-25,17.5l46.6,46.6l-10.6,23.2l4.5,4.5l-15.6,15.6
	l43,43L134.5,377.2L269,511.7c132.3-6.6,238.2-113.7,242.9-246.5L388.7,142.1z"/>
<path class="st2" d="M388.7,142.1c-1.2-4.1-3.9-7.5-7.7-9.6L359,120.3c-7.1-3.9-15.3-4.9-23.1-2.6c-7.8,2.2-14.3,7.4-18.2,14.5
	l-83.1,150.3c-1.7,3.1-0.6,7.1,2.5,8.8c1,0.5,2.1,0.8,3.1,0.8c2.3,0,4.5-1.2,5.7-3.3l72.6-131.4l33.1,18.3c3.2,1.8,6.7,2.6,10.1,2.6
	c7.4,0,14.5-3.9,18.4-10.8l7.3-13.2C389.4,150.6,389.9,146.2,388.7,142.1z"/>
<path class="st3" d="M271.5,105.9c-3.5-7.3-9.6-12.9-17.3-15.6l-23.7-8.4c-4-1.4-8.4-1.2-12.3,0.6c-3.9,1.8-6.8,5.1-8.2,9.1l-5,14.2
	c-3.9,10.9,1.8,22.9,12.7,26.7l35.6,12.7l-50.3,141.4c-1.2,3.4,0.6,7.1,3.9,8.2c0.7,0.3,1.4,0.4,2.2,0.4c2.7,0,5.1-1.7,6.1-4.3
	l57.6-161.9C275.4,121.5,275,113.3,271.5,105.9z"/>
<path class="st4" d="M368.4,199.6h-53c-2.1,0-4.1,1.2-5,3.1L292.2,239L211,207.4c-7.9-3.1-16.8,0.8-19.9,8.8l-57.5,147.9
	c-3.1,7.9,0.8,16.8,8.8,19.9l81.7,31.8c7.9,3.1,16.8-0.8,19.9-8.8l57.5-147.9c1.6-4.2,1.3-8.6-0.5-12.3l18-36h49.6
	c3.1,0,5.6-2.5,5.6-5.6C374.1,202.1,371.5,199.6,368.4,199.6z"/>
<path class="st5" d="M368.4,199.6h-53c-2.1,0-4.1,1.2-5,3.1L292.2,239l-41.1-16l-69.7,176.1l42.6,16.6c7.9,3.1,16.8-0.8,19.9-8.8
	l57.5-147.9c1.6-4.2,1.3-8.6-0.5-12.3l18-36h49.6c3.1,0,5.6-2.5,5.6-5.6C374.1,202.1,371.5,199.6,368.4,199.6z"/>
<circle class="st3" cx="235.1" cy="412.8" r="35.5"/>
</svg>
