<?xml version="1.0" encoding="utf-8"?>
<!-- Generator: Adobe Illustrator 21.0.1, SVG Export Plug-In . SVG Version: 6.00 Build 0)  -->
<svg version="1.1" id="Layer_1" xmlns="http://www.w3.org/2000/svg" xmlns:xlink="http://www.w3.org/1999/xlink" x="0px" y="0px"
	 viewBox="0 0 512 512" style="enable-background:new 0 0 512 512;" xml:space="preserve">
<style type="text/css">
	.st0{fill:#187795;}
	.st1{fill:#0A5772;}
	.st2{fill:#FF8800;}
	.st3{fill:#E67500;}
	.st4{fill:#FFD400;}
	.st5{fill:#FEC000;}
</style>
<circle class="st0" cx="256" cy="256" r="256"/>
<path class="st1" d="M512,256c0-5.8-0.2-11.5-0.6-17.2L407.7,135.1l-17.5-0.7l-50-53.1l-45.4,19.7L256,62l-35,40.5l-49.1-21.3
	l-14,51.7l-53.5,2.1l9.9,52.7l-47.3,25.1L98.6,256l-31.7,43.2l43.8,43.6l-6.4,34.2L244,511.7c4,0.2,8,0.3,12,0.3
	C397.4,512,512,397.4,512,256z"/>
<polygon class="st2" points="256,62 291,102.5 340.2,81.2 354.1,132.9 407.7,135.1 397.8,187.7 445.1,212.8 413.4,256 445.1,299.2 
	397.8,324.3 407.7,376.9 354.1,379.1 340.2,430.8 291,409.5 256,450 221,409.5 171.8,430.8 157.9,379.1 104.3,376.9 114.2,324.3 
	66.9,299.2 98.6,256 66.9,212.8 114.2,187.7 104.3,135.1 157.9,132.9 171.8,81.2 221,102.5 "/>
<polygon class="st3" points="413.4,256 445.1,212.8 397.8,187.7 407.7,135.1 354.1,132.9 340.2,81.2 291,102.5 256,62 256,62 
	256,450 256,450 291,409.5 340.2,430.8 354.1,379.1 407.7,376.9 397.8,324.3 445.1,299.2 "/>
<circle class="st4" cx="256" cy="256" r="130.7"/>
<path class="st5" d="M256,125.3C256,125.3,256,125.3,256,125.3l0,261.4c0,0,0,0,0,0c72.2,0,130.7-58.5,130.7-130.7
	S328.2,125.3,256,125.3z"/>
</svg>
